# xmcd
#
# Track frame offsets: 
#        150
#        17758
#        39006
#        63925
#        82144
#        95414
#        126646
#        139589
#        175580
#        188782
#        220372
#        238479
#        268300
#        282017
#        305741
#
# Disc length: 4356 seconds
#
# Revision: 0
# Processed by: cddbd v1.5.2PL0 Copyright (c) Steve Scherf et al.
# Submitted via: ExactAudioCopy v0.99pb4
#
DISCID=df11020f
DTITLE=Eric Clapton - Blues (Disc1)
DYEAR=1900
DGENRE=Blues
TTITLE0=Before you accuse me
TTITLE1=Mean old world
TTITLE2=Ain't that loving you
TTITLE3=The sky is crying
TTITLE4=Cryin'
TTITLE5=Have you ever loved a woman
TTITLE6=Alberta
TTITLE7=Early in the morning
TTITLE8=Give me strength
TTITLE9=Meet me
TTITLE10=Country jail blues
TTITLE11=Floating bridge
TTITLE12=Blow wind blow
TTITLE13=To make somebody happy
TTITLE14=Before you accuse me
EXTD=
EXTT0=
EXTT1=
EXTT2=
EXTT3=
EXTT4=
EXTT5=
EXTT6=
EXTT7=
EXTT8=
EXTT9=
EXTT10=
EXTT11=
EXTT12=
EXTT13=
EXTT14=
PLAYORDER=
